<?xml version="1.0" encoding="utf-8"?>
<svg id="master-artboard" viewBox="0 0 595.3 841.9" version="1.1" xmlns="http://www.w3.org/2000/svg" x="0px" y="0px" style="enable-background:new 0 0 595.3 841.9;" width="595.2999877929688px" height="841.9000244140625px" xmlns:xlink="http://www.w3.org/1999/xlink">

<g transform="matrix(1, 0, 0, 1, 0, 0)">
		<linearGradient id="SVGID_1_" gradientUnits="userSpaceOnUse" x1="201.7173" y1="565.0903" x2="357.1172" y2="565.0903">
			<stop offset="0" style="stop-color:#6B6B6B"/>
			<stop offset="5.359772e-02" style="stop-color:#7C7C7C"/>
			<stop offset="0.1439" style="stop-color:#909090"/>
			<stop offset="0.2448" style="stop-color:#9F9F9F"/>
			<stop offset="0.3638" style="stop-color:#A8A8A8"/>
			<stop offset="0.546" style="stop-color:#ABABAB"/>
			<stop offset="0.6681" style="stop-color:#A7A7A7"/>
			<stop offset="0.777" style="stop-color:#9C9C9C"/>
			<stop offset="0.8808" style="stop-color:#8A8A8A"/>
			<stop offset="0.981" style="stop-color:#717171"/>
			<stop offset="1" style="stop-color:#6B6B6B"/>
		</linearGradient>
		<path class="st0" d="M201.7,562.4c0.6,6.5,5.6,5.4,11.5,5.4h65.4h1.5h65.4c5.9,0,10.9,1.2,11.5-5.4H201.7z" style="fill: url('#SVGID_1_');"/>
		<linearGradient id="SVGID_2_" gradientUnits="userSpaceOnUse" x1="279.5" y1="565.0537" x2="279.5" y2="499">
			<stop offset="0" style="stop-color:#CECECE"/>
			<stop offset="0.4969" style="stop-color:#3A3A3A"/>
			<stop offset="0.6196" style="stop-color:#3A3A3A"/>
			<stop offset="1" style="stop-color:#252525"/>
		</linearGradient>
		<path class="st1" d="M355.9,559.5L331.2,535c-6-7.2-5.2-32.6-5.1-36h-45.7h-1.6h-45.7c0.1,3.3,0.9,28.8-5.1,36l-24.7,24.6&#10;&#9;&#9;&#9;c-4.9,5.5,4.2,5.5,10.9,5.5h65.1h0.6h65.1C351.7,565.1,360.7,565.1,355.9,559.5z" style="fill: url('#SVGID_2_');"/>
	</g><radialGradient id="SVGID_3_" cx="272.6028" cy="349.3521" r="182.2667" gradientTransform="matrix(1.0405 0 0 0.8974 -4.1432 42.7414)" gradientUnits="userSpaceOnUse">
		<stop offset="0" style="stop-color:#FFFFFF"/>
		<stop offset="1" style="stop-color:#A8A8A8"/>
	</radialGradient><path class="st2" d="M489.2,487.4c0,7.2-5.6,13.1-12.5,13.1H82.3c-6.9,0-12.5-5.8-12.5-13.1V225.1c0-7.2,5.6-13.1,12.5-13.1h394.4&#10;&#9;&#9;c6.9,0,12.5,5.8,12.5,13.1V487.4z" style="fill: url('#SVGID_3_');" transform="matrix(1, 0, 0, 1, 0, 0)"/><g transform="matrix(1, 0, 0, 1, 0, 0)">
			<defs>
				<path d="M 267.899994 462.799988 L 267.899994 491 L 290.899994 491 L 290.899994 462.799988" id="SVGID_4_"/>
			</defs>
			<clipPath id="SVGID_5_">
				<use style="overflow:visible;" xlink:href="#SVGID_4_"/>
			</clipPath>
			<path class="st3" d="M287.1,477.8c0-3.6,2.9-5.3,3.1-5.4c-1.7-2.4-4.2-2.8-5.2-2.8c-2.2-0.2-4.3,1.3-5.4,1.3&#10;&#9;&#9;&#9;&#9;c-1.1,0-2.8-1.3-4.7-1.2c-2.4,0-4.6,1.4-5.9,3.5c-2.5,4.3-0.6,10.7,1.8,14.2c1.2,1.7,2.6,3.6,4.5,3.6c1.8-0.1,2.5-1.2,4.6-1.2&#10;&#9;&#9;&#9;&#9;c2.2,0,2.8,1.2,4.7,1.1c1.9,0,3.1-1.8,4.3-3.5c1.4-2,1.9-3.9,2-4C290.9,483.5,287.2,482,287.1,477.8" style="clip-path: url('#SVGID_5_');"/>
		</g><path d="M283.6,467.3c1-1.2,1.7-2.9,1.5-4.5c-1.4,0.1-3.1,0.9-4.2,2.1c-0.9,1.1-1.7,2.8-1.5,4.4&#10;&#9;&#9;&#9;C281,469.4,282.6,468.5,283.6,467.3" transform="matrix(1, 0, 0, 1, 0, 0)"/><path d="M489.2,453.9V225.5c0-7.5-5.6-13.5-12.5-13.5H82.3c-6.9,0-12.5,6.1-12.5,13.5v228.4H489.2z" transform="matrix(1, 0, 0, 1, 0, 0)"/><path d="M 85.699997 228 H 472.999985 V 436 H 85.699997 V 228 Z" class="st4" style="fill: rgb(10, 10, 10);" transform="matrix(1, 0, 0, 1, 0, 0)"/><linearGradient id="SVGID_6_" gradientUnits="userSpaceOnUse" x1="485.9085" y1="215.1009" x2="354.0884" y2="497.79">
		<stop offset="0" style="stop-color:#FFFFFF"/>
		<stop offset="8.962709e-02" style="stop-color:#FFFFFF;stop-opacity:0.9104"/>
		<stop offset="1" style="stop-color:#FFFFFF;stop-opacity:0"/>
	</linearGradient><path class="st5" d="M476.7,212h-93.9L260,453.9h229.2V225.5C489.2,218.1,483.6,212,476.7,212z" style="opacity: 0.52; fill: url('#SVGID_6_');" transform="matrix(1, 0, 0, 1, 0, 0)"/>
</svg>